<!--?xml version="1.0" encoding="utf-8"?-->
<!-- Generator: Adobe Illustrator 15.1.0, SVG Export Plug-In . SVG Version: 6.00 Build 0)  -->

<svg version="1.1" id="_x32_" xmlns="http://www.w3.org/2000/svg" xmlns:xlink="http://www.w3.org/1999/xlink" x="0px" y="0px" width="512px" height="512px" viewBox="0 0 512 512" style="width: 32px; height: 32px; opacity: 1;" xml:space="preserve">
<style type="text/css">

	.st0{fill:#4B4B4B;}

</style>
<g>
	<path class="st0" d="M290.609,330.891c1.828-15.5,1.375-26.453-20.672-48.313c0,0-25.25-25.25-39.531-39.547
		c-11.938-11.922-29.766,5.063-17.547,17.281l41.406,41.406c2.641,2.641,2.641,6.938,0,9.578l-1.281,1.281
		c-2.641,2.656-6.938,2.656-9.578,0l-41.594-41.594c-6.828-6.828-13.469-4.266-17.859,0.141c-4.406,4.391-6.953,11.016-0.141,17.844
		l41.609,41.594c2.641,2.656,2.641,6.938,0,9.578l-1.281,1.281c-2.641,2.656-6.938,2.656-9.578,0l-41.406-41.406
		c-12.219-12.219-29.219,5.609-17.281,17.547c14.281,14.297,39.531,39.547,39.531,39.547c21.875,22.031,32.828,22.484,48.344,20.656
		c12.484-1.453,21.609-4.266,35.281,9.422l120.422,120.406l20.984-20.984L300.016,366.203
		C286.344,352.516,289.156,343.391,290.609,330.891z" style="fill: rgb(75, 75, 75);"></path>
	<path class="st0" d="M391.813,274.875c-42.219-42.219-85.219-85.219-92.625-92.641c-15.25-15.234-40,1.906-26.672,26.672
		c8.891,16.516,26.672,57.141,49.516,85.703c22.859,28.563,44.75,23.813,67.625,29.516l16.625,7.172l84.734,84.734l20.875-20.875
		l0.109-0.094C508.484,391.531,434.5,317.547,391.813,274.875z" style="fill: rgb(75, 75, 75);"></path>
	<path class="st0" d="M222.141,120.156c19.484,0,37.625,5.297,53.359,14.438l8.688-14.906
		c-18.219-10.594-39.406-16.797-62.047-16.797C153.844,102.906,98.5,158.25,98.484,226.547c0,22.625,6.203,43.828,16.797,62.047
		l14.922-8.688c-9.141-15.719-14.453-33.891-14.453-53.359c0-29.406,11.891-55.953,31.156-75.234
		C166.188,132.047,192.734,120.156,222.141,120.156z" style="fill: rgb(75, 75, 75);"></path>
	<path class="st0" d="M222.141,418.5c-53.047-0.016-100.938-21.453-135.719-56.219C51.656,327.5,30.203,279.594,30.188,226.547
		C30.203,173.5,51.656,125.594,86.422,90.813c34.781-34.766,82.672-56.203,135.719-56.219
		c53.047,0.016,100.953,21.453,135.734,56.219c34.75,34.781,56.219,82.688,56.219,135.734c0,14.313-1.609,28.234-4.578,41.641
		l24.688,24.703c6.547-20.953,10.078-43.234,10.078-66.344c0-122.688-99.438-222.141-222.141-222.141
		C99.453,4.406,0,103.859,0,226.547s99.453,222.141,222.141,222.141c27.969,0,54.703-5.219,79.359-14.641l-23.75-23.75
		C260.156,415.609,241.5,418.5,222.141,418.5z" style="fill: rgb(75, 75, 75);"></path>
	<path class="st0" d="M404.25,353.688l-7.828-7.844l-12.234-5.281c-2.188-0.516-4.438-0.906-6.719-1.281
		c-5.938,8.156-12.469,15.875-19.594,23c-6.25,6.234-12.938,12.047-20,17.375l21.5,21.5
		C376.563,387.625,391.703,371.641,404.25,353.688z" style="fill: rgb(75, 75, 75);"></path>
</g>
</svg>
