<!--?xml version="1.0" encoding="utf-8"?-->
<!-- Generator: Adobe Illustrator 18.1.1, SVG Export Plug-In . SVG Version: 6.00 Build 0)  -->

<svg version="1.1" id="_x32_" xmlns="http://www.w3.org/2000/svg" xmlns:xlink="http://www.w3.org/1999/xlink" x="0px" y="0px" viewBox="0 0 512 512" style="width: 32px; height: 32px; opacity: 1;" xml:space="preserve">
<style type="text/css">
	.st0{fill:#4B4B4B;}
</style>
<g>
	<path class="st0" d="M468.639,191.179v-0.03l-121.193-71.904c28.288-17.158,45.631-47.186,45.66-79.05
		c0-7.568-1.007-15.225-3.051-22.794l-2.044-7.412l-7.39-2.17c-7.686-2.236-15.284-3.273-22.63-3.236
		C343.27,4.547,329.718,8.701,317.9,14.893c-17.714,9.374-31.828,23.288-42.328,36.877c-2.073,2.68-3.984,5.362-5.731,8.02h-0.03
		c-0.267-0.03-0.548-0.03-0.859-0.03h-17.15c-4.34,0-8.546,0.852-12.426,2.474c-2.222-3.784-4.784-7.694-7.657-11.656
		c-8.634-11.841-20.082-24.17-34.241-33.849c-7.109-4.85-14.929-9.005-23.4-11.996c-8.487-2.962-17.669-4.761-27.326-4.732
		c-7.361-0.03-14.944,1.007-22.615,3.243l-7.404,2.162l-2.015,7.42c-2.088,7.568-3.051,15.225-3.051,22.792
		c0,24.571,10.338,48.067,28.036,65.373c7.272,7.146,15.802,13.248,25.4,17.913L43.362,191.15l0.014,0.03
		c-18.454,9.886-29.991,29.146-29.991,50.14v132.641c0,22.274,12.974,42.483,33.175,51.792l167.55,77.058
		c13.314,6.138,27.591,9.19,41.898,9.19c14.292,0,28.599-3.051,41.884-9.19l167.549-77.058
		c20.231-9.309,33.175-29.517,33.175-51.792V241.32C498.615,220.326,487.107,201.065,468.639,191.179z M295.27,71.297
		c7.109-9.797,16.661-19.927,27.502-27.318c5.392-3.687,11.123-6.68,16.988-8.753c5.894-2.044,11.922-3.177,18.232-3.177
		c2.34,0,4.724,0.156,7.153,0.489c0.34,2.562,0.504,5.095,0.504,7.657c0,16.757-7.153,33.36-19.816,45.778
		c-6.309,6.198-14.01,11.322-22.867,14.958c-1.273,0.519-2.577,1.007-3.925,1.466c-6.472,2.222-13.552,3.658-21.149,4.058
		c2.295-4.546,3.391-9.463,3.391-14.373v-0.252c-0.03-5.635-1.57-11.255-4.561-16.291c-0.667-1.133-1.408-2.199-2.192-3.207
		C294.781,71.993,295.018,71.638,295.27,71.297z M230.06,120.882l6.213-11.449l10.715-19.809c0.83-1.51,2.318-2.518,4.028-2.755
		c0.222-0.036,0.467-0.036,0.696-0.036h4.628h5.347h8.893c1.874,0,3.628,0.978,4.606,2.614c0.489,0.851,0.733,1.792,0.733,2.732
		c0,0.54-0.059,1.074-0.274,1.607c-0.067,0.296-0.192,0.644-0.356,0.941l-5.754,10.604l-11.174,20.653
		c-0.948,1.748-2.755,2.822-4.725,2.822h-18.883c-1.874,0-3.614-1.015-4.592-2.622c-0.51-0.866-0.732-1.777-0.732-2.755
		C229.431,122.556,229.622,121.682,230.06,120.882z M139.125,35.619c0-2.569,0.148-5.102,0.488-7.656
		c2.414-0.34,4.798-0.496,7.138-0.496c9.582,0,18.646,2.628,27.326,7.175c12.958,6.776,24.688,18.002,33.323,29.273
		c4.295,5.613,7.878,11.226,10.47,16.076c0.666,1.229,1.244,2.414,1.792,3.54l-2.399,4.466l-7.583,13.973
		c-4.754-0.059-9.316-0.577-13.641-1.399c-5.065-0.985-9.819-2.414-14.277-4.214C155.238,85.552,139.066,60.768,139.125,35.619z
		 M471.142,373.961c0,11.537-6.708,22.001-17.18,26.821l-167.549,77.095c-9.642,4.428-20.023,6.657-30.406,6.657
		c-10.397,0-20.779-2.228-30.42-6.657L58.038,400.782c-10.47-4.82-17.195-15.284-17.195-26.821V241.32
		c0-10.989,6.117-21.09,15.877-26.184l0.341-0.149l144.786-85.914c1.126,0.089,2.296,0.178,3.436,0.244
		c0.77,2.688,1.866,5.28,3.332,7.723c2.903,4.91,7.02,8.849,11.804,11.56c4.798,2.754,10.264,4.25,15.966,4.25h17.164
		c11.864,0,22.793-6.509,28.436-16.943l1.229-2.258c3.288,0.303,6.546,0.429,9.79,0.429c7.598,0,14.929-0.733,21.95-2.17
		l140.016,83.078l0.326,0.149c9.745,5.095,15.847,15.195,15.847,26.184V373.961z" style="fill: rgb(75, 75, 75);"></path>
	<path class="st0" d="M237.702,313.772l-177.798-81.79c-3.066-1.408-6.694-0.067-8.101,3.006c-1.408,3.059-0.074,6.68,3.006,8.094
		l177.798,81.783c3.066,1.407,6.68,0.067,8.102-2.999C242.101,318.807,240.768,315.178,237.702,313.772z" style="fill: rgb(75, 75, 75);"></path>
	<path class="st0" d="M452.111,231.982l-177.812,81.79c-3.051,1.406-4.399,5.036-2.992,8.094c1.407,3.066,5.036,4.406,8.102,2.999
		l177.797-81.783c3.066-1.414,4.414-5.035,2.992-8.094C458.79,231.915,455.177,230.574,452.111,231.982z" style="fill: rgb(75, 75, 75);"></path>
	<path class="st0" d="M254.245,334.913c-3.361,0-6.102,2.732-6.102,6.102v122.592c0,3.369,2.74,6.101,6.102,6.101
		c3.377,0,6.102-2.732,6.102-6.101V341.015C260.347,337.646,257.622,334.913,254.245,334.913z" style="fill: rgb(75, 75, 75);"></path>
	<path class="st0" d="M255.77,289.645V167.564c0-3.369-2.74-6.101-6.102-6.101c-3.377,0-6.102,2.732-6.102,6.101v122.081
		c0,3.37,2.725,6.102,6.102,6.102C253.031,295.747,255.77,293.015,255.77,289.645z" style="fill: rgb(75, 75, 75);"></path>
</g>
</svg>
