<!--?xml version="1.0" encoding="utf-8"?-->
<!-- Generator: Adobe Illustrator 18.1.1, SVG Export Plug-In . SVG Version: 6.00 Build 0)  -->

<svg version="1.1" id="_x32_" xmlns="http://www.w3.org/2000/svg" xmlns:xlink="http://www.w3.org/1999/xlink" x="0px" y="0px" viewBox="0 0 512 512" style="width: 32px; height: 32px; opacity: 1;" xml:space="preserve">
<style type="text/css">
	.st0{fill:#4B4B4B;}
</style>
<g>
	<path class="st0" d="M446.195,453.886L266.498,8.927C264.309,3.503,259.119,0,253.277,0c-1.228,0-2.46,0.158-3.65,0.474
		L104.159,38.986c-5.782,1.529-10.027,6.562-10.559,12.521L64.823,374.174c-0.49,5.462,2.252,10.796,6.99,13.568l208.475,122.299
		c2.192,1.281,4.683,1.959,7.214,1.959c1.228,0,2.456-0.158,3.654-0.474l145.469-38.504c3.952-1.048,7.273-3.752,9.1-7.398
		C447.558,461.963,447.728,457.684,446.195,453.886z M371.605,345.366l-55.801-31.724l-26.006-64.411l55.801,31.731L371.605,345.366
		z M338.721,263.929l-55.8-31.724l-26.006-64.404l55.794,31.724L338.721,263.929z M262.788,296.625l26.013,64.396l-57.375-32.62
		l-26.009-64.397L262.788,296.625z M198.539,246.964l-26.014-64.405l57.375,32.62l26.01,64.405L198.539,246.964z M305.831,182.492
		l-55.8-31.724l-26.006-64.396l55.801,31.723L305.831,182.492z M239.777,32.582l7.156,4.076l26.014,64.412l-55.801-31.732
		l-11.221-27.792L239.777,32.582z M223.026,198.146l-57.379-32.612l-26.01-64.404l57.375,32.62L223.026,198.146z M164.238,52.592
		l25.896,64.125l-57.372-32.628l-8.456-20.936L164.238,52.592z M94.037,367.703l22.747-255.024l2.738-0.414L262.63,466.603
		L94.037,367.703z M238.301,345.434l57.371,32.62l26.006,64.397l-57.372-32.62L238.301,345.434z M293.234,481.467l-22.05-54.595
		l57.375,32.605l4.614,11.421L293.234,481.467z M322.691,330.676l55.793,31.724l26.01,64.397l-55.797-31.724L322.691,330.676z
		 M374.86,459.86l-19.286-47.755l55.797,31.724l2.32,5.748L374.86,459.86z" style="fill: rgb(75, 75, 75);"></path>
</g>
</svg>
